<?xml version="1.0" encoding="UTF-8"?>
<svg xmlns="http://www.w3.org/2000/svg" xmlns:xlink="http://www.w3.org/1999/xlink" width="180px" height="100px" viewBox="0 0 417 100" version="1.1">
<g id="surface1">
<path style=" stroke:none;fill-rule:nonzero;fill:rgb(0%,0%,0%);fill-opacity:1;" d="M 0 49.757812 L 0 99.554688 L 41.167969 99.394531 C 86.941406 99.273438 84.355469 99.394531 90.339844 96.441406 C 94.222656 94.5 96.726562 91.949219 98.710938 87.984375 C 101.136719 83.089844 101.660156 80.015625 101.660156 70.996094 C 101.703125 62.5 101.21875 59.75 99.035156 55.378906 C 97.539062 52.347656 96.121094 50.769531 93.855469 49.472656 C 92.847656 48.867188 91.917969 48.339844 91.835938 48.300781 C 91.753906 48.21875 92.359375 47.410156 93.210938 46.441406 C 95.597656 43.648438 97.820312 38.714844 98.546875 34.585938 C 99.316406 30.054688 99.074219 20.066406 98.101562 16.382812 C 96.566406 10.640625 92.886719 5.621094 88.558594 3.4375 C 81.847656 0.0390625 81.484375 0 37.527344 0 L 0 0 Z M 69.59375 26.699219 C 71.007812 27.46875 71.65625 29.410156 71.496094 32.28125 C 71.332031 34.628906 71.171875 35.03125 70.039062 36.042969 L 68.746094 37.21875 L 27.09375 37.21875 L 27.09375 26.292969 L 47.960938 26.292969 C 61.464844 26.292969 69.070312 26.457031 69.59375 26.699219 Z M 71.898438 62.136719 C 74.972656 64.28125 74.609375 71.199219 71.332031 72.410156 C 70.726562 72.652344 61.832031 72.816406 48.890625 72.816406 L 27.5 72.816406 L 27.5 61.488281 L 49.253906 61.488281 C 68.300781 61.488281 71.089844 61.570312 71.898438 62.136719 Z M 71.898438 62.136719 "/>
<path style=" stroke:none;fill-rule:nonzero;fill:rgb(0%,0%,0%);fill-opacity:1;" d="M 111.207031 49.757812 L 111.207031 99.515625 L 139.511719 99.515625 L 139.59375 76.738281 L 139.714844 53.964844 L 160.296875 76.738281 L 180.878906 99.515625 L 222.289062 99.515625 L 214.566406 91.910156 C 210.320312 87.703125 198.511719 76.132812 188.320312 66.140625 L 169.800781 47.976562 L 175.421875 42.3125 C 180.070312 37.582031 204.253906 12.703125 213.878906 2.710938 L 216.507812 0 L 197.339844 0.0390625 L 178.128906 0.0390625 L 158.921875 21.277344 L 139.714844 42.476562 L 139.59375 21.238281 L 139.511719 0 L 111.207031 0 Z M 111.207031 49.757812 "/>
<path style=" stroke:none;fill-rule:nonzero;fill:rgb(0%,0%,0%);fill-opacity:1;" d="M 227.261719 49.757812 L 227.261719 99.515625 L 255.570312 99.515625 L 255.570312 27.914062 L 312.589844 27.914062 L 312.589844 0 L 227.261719 0 Z M 227.261719 49.757812 "/>
<path style=" stroke:none;fill-rule:nonzero;fill:rgb(0%,0%,0%);fill-opacity:1;" d="M 340.613281 0.605469 C 336.488281 1.335938 334.019531 2.265625 331.3125 4.003906 C 326.78125 6.917969 323.585938 11.527344 322.132812 17.273438 C 320.835938 22.289062 320.636719 27.832031 320.796875 52.871094 C 320.960938 79.125 321.039062 79.976562 323.101562 85.476562 C 325.125 90.898438 329.695312 95.589844 334.707031 97.492188 C 340.085938 99.515625 339.804688 99.515625 379.636719 99.515625 L 416.917969 99.515625 L 416.917969 72.007812 L 382.585938 71.925781 L 348.253906 71.804688 L 347.203125 70.832031 C 346.636719 70.265625 346.03125 69.296875 345.828125 68.609375 C 345.667969 67.921875 345.625 58.898438 345.746094 48.585938 L 345.949219 29.8125 L 347.082031 28.964844 C 348.214844 28.113281 348.375 28.113281 382.585938 27.992188 L 416.917969 27.871094 L 416.917969 0 L 380.242188 0.0390625 C 352.015625 0.0820312 342.835938 0.203125 340.613281 0.605469 Z M 340.613281 0.605469 "/>
<path style=" stroke:none;fill-rule:nonzero;fill:rgb(0%,0%,0%);fill-opacity:1;" d="M 260.421875 54.207031 L 260.421875 67.554688 L 306.523438 67.554688 L 306.523438 40.859375 L 260.421875 40.859375 Z M 260.421875 54.207031 "/>
</g>
</svg>
