<?xml version="1.0" standalone="no"?>
<!DOCTYPE svg PUBLIC "-//W3C//DTD SVG 20010904//EN"
 "http://www.w3.org/TR/2001/REC-SVG-20010904/DTD/svg10.dtd">
<svg version="1.0" xmlns="http://www.w3.org/2000/svg"
 width="1080.000000pt" height="1080.000000pt" viewBox="0 0 1080.000000 1080.000000"
 preserveAspectRatio="xMidYMid meet">

<g transform="translate(0.000000,1080.000000) scale(0.100000,-0.100000)"
fill="#000000" stroke="none">
<path d="M5284 6359 c-71 -71 -130 -132 -132 -134 -2 -2 13 -11 33 -20 52 -26
103 -89 111 -140 17 -118 -56 -213 -171 -223 -108 -9 -194 64 -203 171 l-4 52
-205 83 c-113 46 -206 82 -208 80 -2 -2 52 -115 119 -253 67 -137 131 -269
142 -292 l19 -42 631 -1 631 0 142 291 c78 160 141 293 138 295 -2 2 -94 -33
-205 -78 l-202 -82 0 -36 c0 -49 -37 -117 -83 -154 -29 -23 -50 -31 -95 -34
-74 -5 -129 21 -172 80 -26 36 -30 49 -30 108 0 58 4 72 29 107 17 23 49 50
76 63 l47 23 -133 133 c-74 74 -136 134 -139 134 -4 0 -64 -59 -136 -131z"/>
<path d="M2540 4880 l0 -570 225 0 225 0 0 395 0 395 440 0 441 0 24 -25 c34
-33 33 -77 -1 -104 -26 -21 -37 -21 -463 -21 l-436 0 177 -176 176 -175 344 3
343 3 59 28 c119 55 191 136 232 259 31 92 31 174 0 266 -41 122 -118 207
-241 264 l-50 23 -747 3 -748 2 0 -570z"/>
<path d="M4507 4883 l3 -568 230 -3 230 -2 0 395 0 395 680 0 680 0 0 175 0
175 -912 0 -913 0 2 -567z"/>
<path d="M6517 5058 l3 -392 177 -178 178 -178 692 0 693 0 0 180 0 180 -640
0 -640 0 0 390 0 390 -232 0 -233 0 2 -392z"/>
<path d="M5150 4775 l175 -175 502 0 503 0 0 175 0 175 -677 0 -678 0 175
-175z"/>
</g>
</svg>
