<?xml version="1.0" encoding="UTF-8"?>
<svg xmlns="http://www.w3.org/2000/svg" xmlns:xlink="http://www.w3.org/1999/xlink" width="180px" height="100px" viewBox="0 0 150 100" version="1.1">
<g id="surface1">
<path style=" stroke:none;fill-rule:nonzero;fill:rgb(0%,0%,0%);fill-opacity:1;" d="M 58.050781 36.226562 C 57.601562 37.851562 57.25 39.25 57.25 39.351562 C 57.25 39.425781 62.625 39.5 69.199219 39.5 C 82.699219 39.5 81.601562 39.300781 78.574219 41.398438 L 77.25 42.300781 L 74 39.699219 L 71.550781 41.800781 C 70.226562 42.949219 67.273438 45.449219 65 47.375 C 62.726562 49.273438 60.726562 50.976562 60.523438 51.148438 C 60.324219 51.324219 59.976562 52.226562 59.773438 53.148438 L 59.351562 54.800781 L 54.875 57.976562 L 50.398438 61.125 L 49.726562 63.699219 L 49.050781 66.25 L 69.550781 66.199219 L 90.050781 66.125 L 90.726562 63.75 C 91.101562 62.449219 91.5 61.074219 91.601562 60.675781 L 91.75 60 L 83.449219 59.976562 L 75.125 59.949219 L 78.875 58.726562 C 80.925781 58.023438 82.675781 57.351562 82.773438 57.226562 C 82.851562 57.074219 83.023438 55.351562 83.125 53.425781 C 83.449219 47.351562 82.875 48.300781 88.5 44.351562 C 91.175781 42.476562 94.175781 40.375 95.148438 39.699219 L 96.925781 38.476562 L 97.675781 35.851562 L 98.449219 33.25 L 58.824219 33.25 Z M 74.351562 43.898438 C 76.574219 47.625 78.25 50.574219 78.199219 50.625 C 77.726562 50.949219 74.375 51.976562 74.273438 51.824219 C 74.199219 51.699219 73.148438 50.300781 71.949219 48.675781 C 70.726562 47.074219 69.75 45.648438 69.773438 45.550781 C 69.800781 45.226562 73.101562 42.5 73.351562 42.574219 C 73.5 42.625 73.949219 43.226562 74.351562 43.898438 Z M 71.023438 49.523438 C 72.476562 51.550781 72.949219 52.449219 73.074219 53.273438 C 73.148438 53.875 73.300781 54.875 73.398438 55.476562 L 73.574219 56.574219 L 69.925781 52.726562 C 67.898438 50.601562 66.25 48.726562 66.25 48.574219 C 66.25 48.125 68.25 46.726562 68.726562 46.800781 C 68.949219 46.851562 69.976562 48.074219 71.023438 49.523438 Z M 69.375 53.925781 L 72.550781 57.273438 L 72 57.898438 C 71.675781 58.226562 71.25 58.5 71.074219 58.5 C 70.875 58.5 68.875 56.949219 66.601562 55.050781 L 62.476562 51.625 L 63.648438 50.574219 L 64.824219 49.523438 L 65.523438 50.050781 C 65.898438 50.324219 67.625 52.074219 69.375 53.925781 Z M 81.25 53.226562 C 81.25 54.324219 81.148438 55.273438 81.050781 55.351562 C 80.925781 55.425781 79.550781 55.5 77.976562 55.523438 L 75.125 55.574219 L 74.898438 54.648438 C 74.773438 54.148438 74.726562 53.699219 74.800781 53.625 C 74.976562 53.449219 80.574219 51.300781 80.949219 51.273438 C 81.175781 51.25 81.25 51.800781 81.25 53.226562 Z M 66.226562 56.300781 C 71.25 60.523438 70.976562 60.925781 65.425781 57.5 C 60.648438 54.550781 60.898438 54.800781 61.273438 53.550781 L 61.574219 52.523438 L 62.226562 53 C 62.574219 53.25 64.375 54.75 66.226562 56.300781 Z M 76.226562 57.601562 C 76.175781 57.648438 75.699219 57.824219 75.175781 57.949219 C 74.351562 58.175781 74.25 58.175781 74.523438 57.851562 C 74.675781 57.648438 75.148438 57.5 75.574219 57.5 C 76 57.5 76.273438 57.550781 76.226562 57.601562 Z M 76.226562 57.601562 "/>
<path style=" stroke:none;fill-rule:nonzero;fill:rgb(0%,0%,0%);fill-opacity:1;" d="M 12.273438 34.648438 C 11.726562 36.601562 3.976562 64.648438 3.824219 65.199219 L 3.699219 65.75 L 9.023438 65.699219 L 14.324219 65.625 L 14.648438 64.625 C 14.824219 64.074219 15.601562 61.375 16.351562 58.625 C 17.25 55.398438 17.898438 53.5 18.175781 53.273438 C 18.523438 53.023438 19.324219 52.976562 21.75 53.101562 C 25.800781 53.273438 26.523438 53.5 28.125 55.074219 C 29.175781 56.125 29.625 56.898438 30.625 59.25 C 31.273438 60.824219 32.199219 62.949219 32.648438 63.925781 L 33.476562 65.75 L 38.601562 65.75 C 41.425781 65.75 43.75 65.648438 43.75 65.523438 C 43.75 65.148438 40 56.398438 39.375 55.351562 C 38.425781 53.726562 36.726562 52.324219 35.125 51.875 C 33.875 51.5 33.726562 51.398438 33.851562 50.925781 C 33.925781 50.625 34 50.300781 34 50.175781 C 34 50.074219 34.375 50 34.824219 50 C 35.273438 50 36.324219 49.824219 37.125 49.625 C 41.699219 48.425781 44.476562 45.75 44.898438 42.148438 C 45.375 38.226562 42.851562 35.699219 37.25 34.449219 C 35.101562 34 33.824219 33.925781 23.699219 33.824219 L 12.523438 33.699219 Z M 29.148438 38.75 C 31.625 39.023438 32.925781 39.601562 33.675781 40.726562 C 34.699219 42.25 34.175781 45.101562 32.625 46.476562 C 30.925781 47.949219 29.351562 48.351562 24.550781 48.449219 C 20.074219 48.550781 19.5 48.449219 19.5 47.523438 C 19.5 46.523438 21.773438 39.101562 22.175781 38.800781 C 22.675781 38.425781 26.226562 38.398438 29.148438 38.75 Z M 29.148438 38.75 "/>
<path style=" stroke:none;fill-rule:nonzero;fill:rgb(0%,0%,0%);fill-opacity:1;" d="M 105.398438 34.648438 C 105.148438 35.300781 105.226562 35.5 105.699219 35.5 C 105.925781 35.5 106.273438 35.726562 106.449219 36.023438 C 106.800781 36.550781 106.976562 35.949219 100.625 56.625 C 99.476562 60.324219 98.375 63.976562 98.148438 64.699219 L 97.773438 66 L 102.324219 65.949219 L 106.851562 65.875 L 108.175781 61 C 111.273438 49.648438 112.925781 43.75 113.050781 43.625 C 113.101562 43.550781 113.425781 43.476562 113.726562 43.449219 C 114.351562 43.375 113.898438 42.476562 122.976562 61.75 L 124.898438 65.875 L 131.199219 65.949219 L 137.476562 66 L 137.898438 64.574219 C 138.101562 63.773438 138.5 62.398438 138.75 61.5 C 138.976562 60.601562 139.425781 59.023438 139.699219 58 C 140 56.976562 140.574219 54.824219 141 53.25 C 141.449219 51.675781 141.949219 49.875 142.125 49.25 C 142.300781 48.625 142.773438 47 143.125 45.625 C 143.699219 43.5 145.773438 36.023438 146.148438 34.675781 C 146.273438 34.273438 145.925781 34.25 141.273438 34.25 L 136.300781 34.25 L 136.050781 35.050781 C 135.898438 35.5 135.5 37 135.125 38.375 C 134.75 39.75 134.300781 41.375 134.125 42 C 133.949219 42.625 133.5 44.199219 133.148438 45.5 C 130.148438 56.550781 130.125 56.625 129.375 56.625 C 128.726562 56.625 128.574219 56.398438 127.101562 53.25 C 126.226562 51.398438 125.074219 48.925781 124.523438 47.75 C 123.976562 46.574219 122.324219 43.101562 120.875 40 L 118.25 34.375 L 111.898438 34.300781 C 106.273438 34.25 105.550781 34.273438 105.398438 34.648438 Z M 105.398438 34.648438 "/>
<path style=" stroke:none;fill-rule:nonzero;fill:rgb(0%,0%,0%);fill-opacity:1;" d="M 98.101562 37.726562 C 97.976562 38.300781 97.398438 38.875 95.398438 40.324219 L 92.875 42.199219 L 90.324219 50.550781 C 88.898438 55.125 87.75 58.976562 87.75 59.074219 C 87.75 59.175781 88.699219 59.25 89.824219 59.25 C 92.800781 59.25 92.898438 59.398438 91.976562 62.5 C 90.949219 66.023438 90.800781 65.773438 93.800781 65.699219 L 96.351562 65.625 L 97.773438 61 C 98.550781 58.449219 100.351562 52.601562 101.75 48 C 103.148438 43.398438 104.449219 39.125 104.648438 38.523438 C 104.851562 37.898438 105 37.324219 105 37.199219 C 105 37.101562 103.476562 37 101.625 37 L 98.25 37 Z M 98.101562 37.726562 "/>
<path style=" stroke:none;fill-rule:nonzero;fill:rgb(0%,0%,0%);fill-opacity:1;" d="M 48.675781 37.800781 C 48.449219 37.976562 47.875 39.476562 47.375 41.125 C 45.550781 47.125 44.523438 50.449219 43.375 54.148438 L 42.199219 57.949219 L 43.898438 61.976562 L 45.574219 66 L 48.175781 66 L 48.898438 63.375 L 49.625 60.726562 L 51.101562 59.800781 L 52.574219 58.875 L 54.050781 54.125 C 54.851562 51.5 56.074219 47.574219 56.75 45.375 C 57.398438 43.175781 58.050781 41.175781 58.125 40.925781 C 58.25 40.625 58.175781 40.5 57.824219 40.5 C 57.550781 40.5 57.074219 40.226562 56.773438 39.898438 C 56.273438 39.375 56.226562 39.175781 56.449219 38.523438 C 56.601562 38.125 56.648438 37.726562 56.574219 37.648438 C 56.25 37.351562 49.101562 37.5 48.675781 37.800781 Z M 48.675781 37.800781 "/>
</g>
</svg>
