<?xml version="1.0" encoding="UTF-8"?>
<svg xmlns="http://www.w3.org/2000/svg" xmlns:xlink="http://www.w3.org/1999/xlink" width="180px" height="140px" viewBox="0 0 180 140" version="1.1">
<g id="surface1">
<path style=" stroke:none;fill-rule:nonzero;fill:rgb(0%,0%,0%);fill-opacity:1;" d="M 119.464844 90.273438 C 117.527344 90.011719 115.796875 89.132812 114.894531 87.9375 C 114.285156 87.128906 113.976562 85.890625 114.132812 84.898438 C 114.183594 84.546875 116.054688 78.929688 119.324219 69.28125 C 122.132812 60.996094 124.488281 54.09375 124.554688 53.941406 C 124.746094 53.523438 125.269531 52.800781 125.6875 52.375 C 127.085938 50.964844 129.300781 49.945312 131.460938 49.726562 C 131.929688 49.726562 136.203125 49.628906 145.71875 49.726562 C 159.199219 49.726562 159.316406 49.726562 160.03125 49.878906 C 163.796875 50.558594 166.53125 52.234375 167.054688 54.175781 C 167.242188 54.875 167.15625 55.328125 166.5625 56.949219 L 166.445312 57.28125 L 142.8125 57.28125 L 142.351562 57.460938 C 141.789062 57.679688 141.191406 58.128906 140.957031 58.535156 C 140.851562 58.695312 139.160156 63.382812 137.183594 68.941406 C 134.449219 76.636719 133.59375 79.128906 133.589844 79.394531 C 133.589844 79.902344 133.851562 80.222656 134.457031 80.464844 C 134.691406 80.566406 135.800781 80.566406 146.476562 80.566406 C 154.066406 80.566406 158.238281 80.566406 158.238281 80.664062 C 158.238281 80.847656 156.457031 85.75 156.25 86.132812 C 155.246094 88.011719 152.84375 89.59375 150.039062 90.230469 L 149.429688 90.371094 L 134.640625 90.382812 C 126.507812 90.386719 119.679688 90.371094 119.46875 90.382812 Z M 18.164062 90.054688 C 15.75 89.714844 13.863281 88.492188 13.183594 86.832031 C 12.710938 85.683594 12.746094 84.691406 13.316406 83.050781 C 13.492188 82.539062 16.078125 75.0625 19.058594 66.433594 C 22.039062 57.804688 24.53125 50.601562 24.59375 50.421875 L 24.710938 50.09375 L 44.40625 50.09375 L 44.355469 50.230469 C 44.332031 50.332031 41.972656 56.453125 39.128906 63.882812 C 35.648438 72.976562 33.941406 77.53125 33.910156 77.804688 C 33.859375 78.253906 34 78.808594 34.285156 79.238281 C 34.535156 79.628906 35.125 80.03125 35.792969 80.28125 C 36.386719 80.503906 36.398438 80.503906 37.429688 80.503906 C 38.335938 80.5 38.542969 80.503906 39.101562 80.332031 C 40.734375 79.902344 42.269531 78.863281 43.003906 77.683594 C 43.121094 77.492188 45.558594 71.21875 48.421875 63.730469 L 53.625 50.121094 L 62.371094 50.121094 C 70.785156 50.121094 71.117188 50.121094 71.074219 50.222656 C 71.046875 50.324219 68.445312 57.8125 65.289062 66.949219 C 62.128906 76.085938 59.417969 83.925781 59.265625 84.367188 C 58.753906 85.820312 57.867188 86.972656 56.460938 87.996094 C 55.328125 88.816406 54.035156 89.425781 52.628906 89.789062 C 51.121094 90.179688 52.085938 90.160156 34.648438 90.160156 C 21.539062 90.15625 18.667969 90.160156 18.167969 90.0625 Z M 64.757812 90.042969 C 64.785156 89.941406 65.355469 88.429688 66.035156 86.585938 C 68.714844 79.3125 73.753906 65.667969 73.902344 65.273438 L 74.0625 64.851562 L 93.59375 64.851562 C 112.160156 64.851562 113.125 64.859375 113.085938 64.964844 C 113.058594 65.0625 112.289062 67.066406 111.363281 69.503906 C 110.441406 71.941406 109.652344 74 109.609375 74.078125 L 109.53125 74.21875 L 89.324219 74.21875 L 86.53125 82.152344 L 83.738281 90.089844 L 74.226562 90.089844 C 65.195312 90.089844 64.71875 90.101562 64.757812 89.988281 Z M 76.128906 59.34375 C 76.128906 59.242188 79.695312 49.660156 79.734375 49.628906 C 79.75 49.617188 88.574219 49.628906 99.339844 49.617188 L 118.910156 49.617188 L 115.214844 59.351562 L 95.671875 59.351562 C 83.8125 59.351562 76.128906 59.34375 76.128906 59.351562 Z M 76.128906 59.34375 "/>
</g>
</svg>
