<?xml version="1.0" encoding="UTF-8"?>
<svg xmlns="http://www.w3.org/2000/svg" xmlns:xlink="http://www.w3.org/1999/xlink" width="180px" height="100px" viewBox="0 0 140 100" version="1.1">
<g id="surface1">
<path style=" stroke:none;fill-rule:nonzero;fill:rgb(16.078432%,10.588235%,10.588235%);fill-opacity:1;" d="M 67.773438 20 L 75.976562 45.101562 L 81.648438 28.601562 L 88.074219 28.601562 L 75.925781 64.300781 L 67.773438 40 L 62.476562 55.625 L 55.523438 55.625 Z M 52.148438 51.976562 C 51.625 52.648438 51.023438 53.273438 50.351562 53.800781 C 49.675781 54.324219 48.925781 54.773438 48.148438 55.125 C 47.398438 55.449219 46.574219 55.625 45.75 55.625 L 33.75 55.625 C 33.074219 55.648438 32.398438 55.523438 31.773438 55.273438 C 31.25 55.074219 30.773438 54.726562 30.398438 54.300781 C 30.050781 53.875 29.824219 53.375 29.773438 52.824219 C 29.699219 52.25 29.800781 51.625 30.101562 50.949219 L 36.398438 33.050781 C 36.726562 32.300781 37.199219 31.625 37.800781 31.074219 C 38.425781 30.5 39.125 30 39.875 29.574219 C 40.625 29.148438 41.425781 28.851562 42.25 28.625 C 43 28.425781 43.773438 28.300781 44.550781 28.300781 L 55.773438 28.300781 C 56.476562 28.273438 57.148438 28.425781 57.773438 28.675781 C 58.300781 28.898438 58.773438 29.25 59.101562 29.726562 C 59.425781 30.175781 59.625 30.726562 59.675781 31.273438 C 59.726562 31.925781 59.601562 32.601562 59.351562 33.199219 L 53.398438 49.898438 C 53.074219 50.648438 52.648438 51.351562 52.148438 51.976562 Z M 51.976562 33.476562 L 43.5 33.476562 L 37.375 50.976562 L 45.75 50.976562 Z M 92.773438 28.601562 L 118.25 28.601562 L 116.398438 34.050781 L 98.300781 34.050781 L 96.675781 38.824219 L 109.773438 38.824219 L 107.726562 44.800781 L 94.625 44.800781 L 93.300781 48.648438 L 111.375 48.648438 L 108.976562 55.601562 L 83.550781 55.601562 Z M 92.773438 28.601562 "/>
<path style=" stroke:none;fill-rule:nonzero;fill:rgb(16.078432%,10.588235%,10.588235%);fill-opacity:1;" d="M 25.148438 77.25 L 23.648438 77.25 C 22.800781 77.25 22.226562 77 21.925781 76.476562 C 21.648438 75.949219 21.648438 75.226562 22 74.300781 L 23.324219 70.675781 C 23.5 70.199219 23.726562 69.75 24 69.351562 C 24.226562 69.023438 24.5 68.726562 24.824219 68.5 C 25.125 68.273438 25.476562 68.125 25.851562 68.023438 C 26.226562 67.925781 26.601562 67.851562 26.976562 67.800781 C 27.324219 67.773438 27.773438 67.75 28.273438 67.75 L 29.148438 67.75 C 30.101562 67.75 30.699219 67.949219 30.925781 68.375 C 31.148438 68.800781 31.074219 69.476562 30.726562 70.449219 L 30.625 70.75 L 29.574219 70.75 L 29.675781 70.476562 C 29.925781 69.800781 29.976562 69.324219 29.875 69.074219 C 29.75 68.800781 29.351562 68.699219 28.699219 68.699219 L 28.101562 68.699219 C 26.949219 68.699219 26.125 68.824219 25.625 69.074219 C 25.125 69.324219 24.726562 69.851562 24.425781 70.675781 L 23.5 73.25 C 23.351562 73.675781 23.226562 74 23.148438 74.226562 C 23.074219 74.476562 23 74.726562 22.949219 75 C 22.898438 75.199219 22.875 75.398438 22.898438 75.625 C 22.925781 75.773438 23 75.898438 23.074219 76.023438 C 23.175781 76.148438 23.324219 76.25 23.5 76.300781 C 23.726562 76.351562 23.976562 76.375 24.226562 76.375 L 25.476562 76.375 C 26.351562 76.375 26.976562 76.273438 27.351562 76.074219 C 27.726562 75.875 28.023438 75.449219 28.273438 74.800781 L 28.550781 74.050781 L 29.601562 74.050781 L 29.273438 74.925781 C 29.148438 75.300781 28.949219 75.675781 28.726562 76 C 28.523438 76.273438 28.300781 76.5 28.050781 76.699219 C 27.800781 76.875 27.5 77.023438 27.199219 77.101562 C 26.898438 77.199219 26.574219 77.25 26.25 77.273438 C 25.949219 77.25 25.574219 77.25 25.148438 77.25 Z M 25.148438 77.25 "/>
<path style=" stroke:none;fill-rule:nonzero;fill:rgb(16.078432%,10.588235%,10.588235%);fill-opacity:1;" d="M 33.949219 67.824219 L 32.648438 71.425781 L 32.675781 71.425781 C 33.125 70.851562 33.898438 70.550781 35.023438 70.550781 C 35.925781 70.550781 36.5 70.699219 36.75 71.023438 C 37.023438 71.351562 36.976562 71.949219 36.648438 72.824219 L 35.074219 77.175781 L 34.101562 77.175781 L 35.699219 72.75 C 35.898438 72.175781 35.925781 71.800781 35.773438 71.625 C 35.601562 71.449219 35.226562 71.351562 34.648438 71.351562 C 33.851562 71.351562 33.273438 71.5 32.925781 71.773438 C 32.574219 72.050781 32.25 72.574219 31.949219 73.351562 L 30.550781 77.175781 L 29.574219 77.175781 L 32.976562 67.824219 Z M 33.949219 67.824219 "/>
<path style=" stroke:none;fill-rule:nonzero;fill:rgb(16.078432%,10.588235%,10.588235%);fill-opacity:1;" d="M 42.226562 77.175781 L 41.25 77.175781 L 41.5 76.5 L 41.476562 76.476562 C 41.226562 76.800781 40.851562 77.023438 40.449219 77.101562 C 39.976562 77.199219 39.5 77.25 39.023438 77.226562 C 38.199219 77.226562 37.625 77.101562 37.300781 76.824219 C 36.976562 76.550781 36.976562 76.023438 37.25 75.25 C 37.375 74.875 37.574219 74.5 37.800781 74.175781 C 38 73.898438 38.25 73.699219 38.550781 73.550781 C 38.824219 73.398438 39.125 73.324219 39.425781 73.273438 C 39.800781 73.226562 40.175781 73.199219 40.550781 73.199219 C 41.824219 73.199219 42.425781 73.425781 42.375 73.851562 L 42.449219 73.851562 L 42.898438 72.648438 C 43.101562 72.101562 43.101562 71.726562 42.898438 71.574219 C 42.699219 71.425781 42.273438 71.351562 41.648438 71.351562 L 41.25 71.351562 C 41.148438 71.351562 41.023438 71.351562 40.851562 71.375 C 40.726562 71.375 40.574219 71.425781 40.449219 71.449219 C 40.351562 71.5 40.226562 71.550781 40.101562 71.601562 C 39.976562 71.648438 39.875 71.75 39.800781 71.851562 C 39.726562 71.976562 39.648438 72.101562 39.601562 72.226562 L 39.523438 72.449219 L 38.5 72.449219 L 38.550781 72.324219 C 38.648438 72.023438 38.800781 71.75 39 71.5 C 39.148438 71.300781 39.324219 71.125 39.550781 70.976562 C 39.75 70.851562 40 70.75 40.226562 70.675781 C 40.476562 70.625 40.726562 70.574219 40.976562 70.550781 C 41.199219 70.523438 41.476562 70.523438 41.824219 70.523438 C 42.199219 70.523438 42.5 70.523438 42.75 70.550781 C 43 70.574219 43.226562 70.625 43.476562 70.699219 C 43.675781 70.75 43.851562 70.875 43.976562 71.050781 C 44.074219 71.25 44.125 71.476562 44.101562 71.675781 C 44.074219 72.023438 44 72.351562 43.875 72.675781 Z M 39.476562 76.449219 C 39.726562 76.449219 39.925781 76.449219 40.074219 76.449219 C 40.25 76.425781 40.449219 76.398438 40.625 76.375 C 40.824219 76.351562 41 76.273438 41.148438 76.175781 C 41.300781 76.074219 41.449219 75.949219 41.574219 75.824219 C 41.726562 75.648438 41.824219 75.449219 41.898438 75.25 C 41.976562 75.050781 42.023438 74.851562 42.023438 74.648438 C 42.023438 74.523438 42 74.398438 41.925781 74.300781 C 41.824219 74.199219 41.699219 74.125 41.550781 74.101562 C 41.375 74.074219 41.226562 74.050781 41.050781 74.023438 C 40.898438 74.023438 40.675781 74.023438 40.351562 74.023438 C 39.699219 74.023438 39.25 74.101562 38.976562 74.226562 C 38.699219 74.351562 38.476562 74.675781 38.300781 75.175781 C 38.074219 75.75 38.074219 76.125 38.25 76.273438 C 38.449219 76.375 38.851562 76.449219 39.476562 76.449219 Z M 39.476562 76.449219 "/>
<path style=" stroke:none;fill-rule:nonzero;fill:rgb(16.078432%,10.588235%,10.588235%);fill-opacity:1;" d="M 47.25 70.625 L 46.875 71.625 L 46.898438 71.625 C 47.449219 70.898438 48.324219 70.550781 49.476562 70.550781 C 49.898438 70.523438 50.300781 70.625 50.675781 70.800781 C 51 70.976562 51.148438 71.25 51.101562 71.625 C 51.726562 70.898438 52.648438 70.550781 53.824219 70.550781 C 54.648438 70.550781 55.175781 70.726562 55.375 71.074219 C 55.574219 71.425781 55.550781 72.023438 55.25 72.851562 L 53.675781 77.175781 L 52.675781 77.175781 L 54.199219 72.949219 C 54.425781 72.351562 54.476562 71.925781 54.375 71.699219 C 54.273438 71.476562 53.949219 71.351562 53.324219 71.351562 C 52.601562 71.351562 52.050781 71.476562 51.648438 71.726562 C 51.25 71.976562 50.925781 72.449219 50.675781 73.148438 L 49.226562 77.175781 L 48.25 77.175781 L 49.851562 72.773438 C 49.925781 72.574219 49.976562 72.375 50.023438 72.175781 C 50.050781 72.023438 50.050781 71.898438 50.023438 71.75 C 50 71.601562 49.875 71.449219 49.699219 71.425781 C 49.449219 71.351562 49.175781 71.324219 48.898438 71.351562 C 48.226562 71.351562 47.675781 71.5 47.25 71.800781 C 46.824219 72.101562 46.476562 72.574219 46.25 73.226562 L 44.824219 77.175781 L 43.851562 77.175781 L 46.226562 70.625 Z M 47.25 70.625 "/>
<path style=" stroke:none;fill-rule:nonzero;fill:rgb(16.078432%,10.588235%,10.588235%);fill-opacity:1;" d="M 58.699219 70.625 L 58.398438 71.425781 L 58.425781 71.449219 C 58.949219 70.851562 59.773438 70.550781 60.851562 70.550781 C 61.226562 70.523438 61.601562 70.601562 61.976562 70.726562 C 62.199219 70.800781 62.425781 70.949219 62.574219 71.148438 C 62.699219 71.375 62.75 71.625 62.726562 71.875 C 62.699219 72.175781 62.648438 72.476562 62.574219 72.773438 C 62.5 73.074219 62.375 73.425781 62.199219 73.898438 C 61.726562 75.199219 61.226562 76.074219 60.699219 76.523438 C 60.175781 77 59.398438 77.226562 58.425781 77.226562 C 57.300781 77.226562 56.699219 76.949219 56.625 76.375 L 56.601562 76.375 L 55.273438 79.976562 L 54.300781 79.976562 L 57.726562 70.601562 Z M 60.300781 71.351562 C 60.050781 71.351562 59.824219 71.375 59.574219 71.398438 C 59.398438 71.425781 59.199219 71.476562 59.023438 71.523438 C 58.851562 71.574219 58.726562 71.675781 58.601562 71.800781 C 58.476562 71.925781 58.351562 72.050781 58.273438 72.148438 C 58.175781 72.300781 58.074219 72.476562 58 72.625 C 57.898438 72.851562 57.824219 73.050781 57.75 73.175781 C 57.699219 73.324219 57.601562 73.550781 57.476562 73.875 C 57.351562 74.25 57.25 74.523438 57.175781 74.75 C 57.101562 74.976562 57.074219 75.199219 57.050781 75.425781 C 57.023438 75.625 57.050781 75.800781 57.148438 75.976562 C 57.25 76.125 57.398438 76.226562 57.574219 76.273438 C 57.851562 76.375 58.125 76.398438 58.398438 76.398438 C 59.148438 76.398438 59.699219 76.25 60.050781 75.925781 C 60.398438 75.601562 60.75 74.925781 61.148438 73.851562 C 61.351562 73.300781 61.476562 72.898438 61.550781 72.601562 C 61.625 72.351562 61.625 72.101562 61.601562 71.851562 C 61.574219 71.648438 61.425781 71.476562 61.226562 71.398438 C 60.949219 71.375 60.625 71.351562 60.300781 71.351562 Z M 60.300781 71.351562 "/>
<path style=" stroke:none;fill-rule:nonzero;fill:rgb(16.078432%,10.588235%,10.588235%);fill-opacity:1;" d="M 65.875 70.625 L 63.5 77.175781 L 62.5 77.175781 L 64.875 70.625 Z M 66.898438 67.824219 L 66.5 68.898438 L 65.5 68.898438 L 65.898438 67.824219 Z M 66.898438 67.824219 "/>
<path style=" stroke:none;fill-rule:nonzero;fill:rgb(16.078432%,10.588235%,10.588235%);fill-opacity:1;" d="M 65.675781 75.601562 C 65.800781 75.023438 65.976562 74.449219 66.199219 73.898438 C 66.398438 73.324219 66.648438 72.75 66.925781 72.199219 C 67.125 71.824219 67.398438 71.476562 67.726562 71.199219 C 68.023438 70.949219 68.398438 70.75 68.800781 70.675781 C 69.300781 70.574219 69.824219 70.550781 70.324219 70.550781 C 70.800781 70.523438 71.300781 70.574219 71.773438 70.675781 C 72.074219 70.726562 72.324219 70.925781 72.449219 71.199219 C 72.574219 71.523438 72.601562 71.875 72.523438 72.199219 C 72.398438 72.773438 72.226562 73.351562 72.023438 73.898438 C 71.824219 74.476562 71.574219 75.050781 71.300781 75.601562 C 71.101562 75.976562 70.824219 76.324219 70.5 76.601562 C 70.199219 76.851562 69.824219 77.023438 69.449219 77.125 C 68.949219 77.226562 68.425781 77.25 67.925781 77.25 C 67.449219 77.273438 66.949219 77.226562 66.476562 77.125 C 66.175781 77.074219 65.925781 76.875 65.800781 76.601562 C 65.625 76.300781 65.574219 75.949219 65.675781 75.601562 Z M 67.574219 72.925781 C 67.476562 73.148438 67.351562 73.5 67.199219 73.925781 C 67.050781 74.351562 66.925781 74.675781 66.851562 74.925781 C 66.773438 75.148438 66.726562 75.375 66.699219 75.601562 C 66.675781 75.75 66.675781 75.925781 66.699219 76.074219 C 66.75 76.175781 66.851562 76.273438 66.949219 76.324219 C 67.101562 76.398438 67.25 76.449219 67.398438 76.476562 C 67.574219 76.5 67.824219 76.5 68.148438 76.5 C 68.476562 76.5 68.726562 76.5 68.925781 76.476562 C 69.125 76.449219 69.300781 76.398438 69.476562 76.324219 C 69.625 76.273438 69.773438 76.175781 69.898438 76.074219 C 70.023438 75.925781 70.148438 75.773438 70.25 75.601562 C 70.375 75.375 70.5 75.148438 70.574219 74.925781 C 70.675781 74.699219 70.800781 74.375 70.949219 73.925781 C 71.101562 73.5 71.226562 73.175781 71.300781 72.925781 C 71.375 72.699219 71.425781 72.476562 71.449219 72.25 C 71.476562 72.101562 71.476562 71.925781 71.449219 71.773438 C 71.398438 71.675781 71.324219 71.574219 71.199219 71.523438 C 71.050781 71.449219 70.898438 71.398438 70.75 71.375 C 70.574219 71.351562 70.324219 71.351562 70 71.351562 C 69.675781 71.351562 69.425781 71.351562 69.226562 71.375 C 69.023438 71.398438 68.851562 71.449219 68.675781 71.523438 C 68.523438 71.574219 68.375 71.675781 68.25 71.773438 C 68.101562 71.925781 68 72.074219 67.898438 72.25 C 67.773438 72.449219 67.675781 72.675781 67.574219 72.925781 Z M 67.574219 72.925781 "/>
<path style=" stroke:none;fill-rule:nonzero;fill:rgb(16.078432%,10.588235%,10.588235%);fill-opacity:1;" d="M 75.675781 70.625 L 75.375 71.425781 L 75.398438 71.425781 C 75.851562 70.851562 76.625 70.550781 77.75 70.550781 C 78.648438 70.550781 79.226562 70.699219 79.476562 71.023438 C 79.75 71.351562 79.699219 71.949219 79.375 72.824219 L 77.800781 77.175781 L 76.824219 77.175781 L 78.425781 72.75 C 78.625 72.175781 78.648438 71.800781 78.5 71.625 C 78.324219 71.449219 77.949219 71.351562 77.375 71.375 C 76.574219 71.375 76 71.523438 75.648438 71.800781 C 75.300781 72.074219 74.976562 72.601562 74.675781 73.375 L 73.273438 77.199219 L 72.300781 77.199219 L 74.675781 70.648438 Z M 75.675781 70.625 "/>
<path style=" stroke:none;fill-rule:nonzero;fill:rgb(16.078432%,10.588235%,10.588235%);fill-opacity:1;" d="M 86.574219 72.101562 L 86.476562 72.351562 L 85.449219 72.351562 L 85.550781 72.101562 C 85.601562 72 85.601562 71.875 85.601562 71.773438 C 85.601562 71.699219 85.550781 71.625 85.5 71.574219 C 85.425781 71.523438 85.300781 71.476562 85.199219 71.476562 C 85.074219 71.449219 84.925781 71.449219 84.800781 71.449219 C 84.675781 71.449219 84.5 71.449219 84.25 71.449219 L 83.675781 71.449219 C 83.574219 71.449219 83.425781 71.449219 83.226562 71.476562 C 83.101562 71.476562 82.949219 71.5 82.824219 71.550781 C 82.726562 71.601562 82.625 71.625 82.523438 71.675781 C 82.425781 71.726562 82.324219 71.800781 82.25 71.898438 C 82.175781 72 82.125 72.125 82.101562 72.226562 C 81.925781 72.726562 81.875 73.050781 81.976562 73.148438 C 82.074219 73.25 82.351562 73.324219 82.824219 73.351562 C 82.925781 73.351562 83 73.351562 83.050781 73.351562 C 83.175781 73.351562 83.398438 73.375 83.648438 73.375 C 83.925781 73.375 84.101562 73.398438 84.25 73.398438 C 84.375 73.398438 84.550781 73.425781 84.75 73.449219 C 84.898438 73.476562 85.050781 73.5 85.199219 73.574219 C 85.324219 73.625 85.425781 73.699219 85.523438 73.773438 C 85.625 73.851562 85.699219 73.976562 85.726562 74.101562 C 85.75 74.273438 85.75 74.425781 85.726562 74.601562 C 85.699219 74.824219 85.625 75.074219 85.550781 75.300781 C 85.425781 75.625 85.273438 75.925781 85.050781 76.199219 C 84.898438 76.425781 84.699219 76.601562 84.476562 76.773438 C 84.25 76.925781 84 77.023438 83.75 77.074219 C 83.5 77.148438 83.25 77.175781 82.976562 77.199219 C 82.75 77.199219 82.476562 77.226562 82.125 77.226562 C 81.773438 77.226562 81.5 77.226562 81.273438 77.199219 C 81.023438 77.175781 80.773438 77.148438 80.550781 77.101562 C 80.324219 77.074219 80.125 76.976562 79.949219 76.851562 C 79.824219 76.726562 79.726562 76.574219 79.675781 76.398438 C 79.625 76.148438 79.675781 75.898438 79.75 75.675781 L 79.976562 75.074219 L 81 75.074219 L 80.824219 75.574219 C 80.726562 75.875 80.773438 76.101562 80.976562 76.199219 C 81.199219 76.300781 81.675781 76.351562 82.425781 76.351562 L 83 76.351562 L 83.273438 76.324219 C 83.375 76.324219 83.476562 76.300781 83.574219 76.273438 C 83.648438 76.25 83.726562 76.199219 83.851562 76.175781 C 83.949219 76.125 84.023438 76.074219 84.125 76 C 84.199219 75.925781 84.273438 75.824219 84.351562 75.726562 C 84.425781 75.601562 84.5 75.476562 84.550781 75.351562 C 84.625 75.199219 84.648438 75.023438 84.675781 74.851562 C 84.675781 74.75 84.675781 74.648438 84.675781 74.550781 C 84.648438 74.476562 84.601562 74.425781 84.476562 74.398438 C 84.375 74.375 84.300781 74.351562 84.199219 74.324219 C 84.125 74.324219 83.976562 74.300781 83.75 74.300781 C 83.523438 74.300781 83.351562 74.300781 83.226562 74.273438 C 83.125 74.273438 82.976562 74.25 82.773438 74.25 C 82.574219 74.25 82.398438 74.226562 82.300781 74.226562 C 82.199219 74.226562 82.074219 74.199219 81.898438 74.175781 C 81.773438 74.148438 81.648438 74.125 81.523438 74.101562 C 81.449219 74.074219 81.351562 74.023438 81.226562 73.976562 C 81.125 73.925781 81.050781 73.851562 81 73.773438 C 80.949219 73.675781 80.925781 73.574219 80.898438 73.476562 C 80.875 73.324219 80.875 73.199219 80.898438 73.050781 C 80.925781 72.875 80.976562 72.675781 81.050781 72.5 C 81.125 72.273438 81.226562 72.074219 81.324219 71.875 C 81.425781 71.699219 81.523438 71.550781 81.648438 71.398438 C 81.75 71.273438 81.875 71.175781 82 71.050781 C 82.125 70.949219 82.273438 70.875 82.425781 70.824219 C 82.574219 70.773438 82.726562 70.726562 82.875 70.675781 C 83.050781 70.625 83.226562 70.601562 83.398438 70.601562 C 83.625 70.574219 83.800781 70.574219 83.949219 70.574219 C 84.101562 70.574219 84.324219 70.574219 84.601562 70.574219 C 84.875 70.574219 85.125 70.574219 85.324219 70.574219 C 85.550781 70.601562 85.75 70.625 85.949219 70.675781 C 86.148438 70.699219 86.324219 70.800781 86.476562 70.898438 C 86.601562 71.023438 86.675781 71.175781 86.699219 71.351562 C 86.726562 71.601562 86.675781 71.851562 86.574219 72.101562 Z M 86.574219 72.101562 "/>
<path style=" stroke:none;fill-rule:nonzero;fill:rgb(16.078432%,10.588235%,10.588235%);fill-opacity:1;" d="M 90.648438 67.824219 L 89.324219 71.425781 L 89.351562 71.425781 C 89.800781 70.851562 90.574219 70.550781 91.699219 70.550781 C 92.601562 70.550781 93.175781 70.699219 93.425781 71.023438 C 93.699219 71.351562 93.648438 71.949219 93.351562 72.824219 L 91.773438 77.175781 L 90.800781 77.175781 L 92.398438 72.75 C 92.601562 72.175781 92.625 71.800781 92.476562 71.625 C 92.300781 71.449219 91.925781 71.351562 91.351562 71.351562 C 90.550781 71.351562 89.976562 71.5 89.625 71.773438 C 89.273438 72.050781 88.949219 72.574219 88.675781 73.351562 L 87.273438 77.175781 L 86.25 77.175781 L 89.648438 67.824219 Z M 90.648438 67.824219 "/>
<path style=" stroke:none;fill-rule:nonzero;fill:rgb(16.078432%,10.588235%,10.588235%);fill-opacity:1;" d="M 96.851562 70.625 L 94.476562 77.175781 L 93.5 77.175781 L 95.875 70.625 Z M 97.851562 67.824219 L 97.449219 68.898438 L 96.476562 68.898438 L 96.875 67.824219 Z M 97.851562 67.824219 "/>
<path style=" stroke:none;fill-rule:nonzero;fill:rgb(16.078432%,10.588235%,10.588235%);fill-opacity:1;" d="M 99.5 70.625 L 99.199219 71.425781 L 99.226562 71.449219 C 99.75 70.851562 100.574219 70.550781 101.648438 70.550781 C 102.023438 70.523438 102.398438 70.601562 102.773438 70.726562 C 103 70.800781 103.226562 70.949219 103.375 71.148438 C 103.5 71.375 103.550781 71.625 103.523438 71.875 C 103.5 72.175781 103.449219 72.476562 103.375 72.773438 C 103.300781 73.074219 103.175781 73.425781 103 73.898438 C 102.523438 75.199219 102.023438 76.074219 101.5 76.523438 C 100.976562 77 100.199219 77.226562 99.226562 77.226562 C 98.101562 77.226562 97.5 76.949219 97.425781 76.375 L 97.398438 76.375 L 96.074219 79.976562 L 95.101562 79.976562 L 98.523438 70.601562 Z M 101.101562 71.351562 C 100.851562 71.351562 100.625 71.375 100.375 71.398438 C 100.199219 71.425781 100 71.476562 99.824219 71.523438 C 99.675781 71.574219 99.523438 71.675781 99.398438 71.800781 C 99.273438 71.925781 99.148438 72.050781 99.074219 72.148438 C 98.976562 72.300781 98.875 72.476562 98.800781 72.625 C 98.699219 72.851562 98.625 73.050781 98.550781 73.175781 C 98.5 73.324219 98.398438 73.550781 98.273438 73.875 C 98.148438 74.25 98.050781 74.523438 97.976562 74.75 C 97.925781 74.976562 97.875 75.199219 97.851562 75.425781 C 97.824219 75.625 97.851562 75.800781 97.949219 75.976562 C 98.050781 76.125 98.199219 76.226562 98.375 76.273438 C 98.648438 76.375 98.925781 76.398438 99.199219 76.398438 C 99.949219 76.398438 100.5 76.25 100.851562 75.925781 C 101.175781 75.601562 101.550781 74.925781 101.949219 73.851562 C 102.148438 73.300781 102.273438 72.898438 102.351562 72.601562 C 102.425781 72.351562 102.425781 72.101562 102.398438 71.851562 C 102.375 71.648438 102.226562 71.476562 102.023438 71.398438 C 101.726562 71.375 101.398438 71.351562 101.101562 71.351562 Z M 101.101562 71.351562 "/>
<path style=" stroke:none;fill-rule:nonzero;fill:rgb(16.078432%,10.588235%,10.588235%);fill-opacity:1;" d="M 71.574219 63.976562 L 25.675781 63.976562 L 26.273438 62.148438 L 72.25 62.148438 Z M 107.050781 62.125 L 80.300781 62.125 L 79.550781 63.976562 L 106.398438 63.976562 Z M 107.050781 62.125 "/>
<path style=" stroke:none;fill-rule:nonzero;fill:rgb(16.078432%,10.588235%,10.588235%);fill-opacity:1;" d="M 103.976562 69.625 L 103.976562 68.199219 L 103.523438 68.199219 L 103.523438 67.925781 L 104.75 67.925781 L 104.75 68.199219 L 104.300781 68.199219 L 104.300781 69.625 Z M 103.976562 69.625 "/>
<path style=" stroke:none;fill-rule:nonzero;fill:rgb(16.078432%,10.588235%,10.588235%);fill-opacity:1;" d="M 106.375 69.625 L 106.375 68.148438 L 105.898438 69.625 L 105.75 69.625 L 105.273438 68.148438 L 105.273438 69.625 L 105.023438 69.625 L 105.023438 67.949219 L 105.5 67.949219 L 105.851562 69.023438 L 106.199219 67.949219 L 106.675781 67.949219 L 106.675781 69.625 Z M 106.375 69.625 "/>
</g>
</svg>
